<svg xmlns="http://www.w3.org/2000/svg" xmlns:xlink="http://www.w3.org/1999/xlink" width="500" zoomAndPan="magnify" viewBox="0 0 375 374.999991" height="500" preserveAspectRatio="xMidYMid meet" version="1.0"><path fill="#ffffff" d="M 111.703125 92.792969 L 73.808594 54.894531 C 68.582031 49.671875 60.160156 49.671875 54.933594 54.894531 C 49.710938 60.121094 49.710938 68.546875 54.933594 73.769531 L 92.832031 111.667969 C 95.382812 114.34375 98.855469 115.691406 102.332031 115.691406 C 105.679688 115.691406 109.15625 114.34375 111.703125 111.667969 C 116.929688 106.46875 116.929688 98.019531 111.703125 92.792969 Z M 66.984375 174.089844 L 13.410156 174.089844 C 6.035156 174.089844 0.0117188 180.113281 0.0117188 187.488281 C 0.0117188 194.863281 6.035156 200.886719 13.410156 200.886719 L 66.984375 200.886719 C 74.359375 200.886719 80.382812 194.863281 80.382812 187.488281 C 80.382812 180.113281 74.332031 174.089844 66.984375 174.089844 Z M 111.703125 263.28125 C 106.480469 258.058594 98.054688 258.058594 92.832031 263.28125 L 54.933594 301.179688 C 49.710938 306.40625 49.710938 314.828125 54.933594 320.054688 C 57.609375 322.601562 60.957031 323.929688 64.433594 323.929688 C 67.78125 323.929688 71.257812 322.578125 73.808594 320.054688 L 111.703125 282.15625 C 116.929688 276.957031 116.929688 268.507812 111.703125 263.28125 Z M 187.5 294.628906 C 180.125 294.628906 174.101562 300.65625 174.101562 308.03125 L 174.101562 361.601562 C 174.101562 368.976562 180.125 375 187.5 375 C 194.875 375 200.898438 368.976562 200.898438 361.601562 L 200.898438 308.03125 C 200.898438 300.65625 194.875 294.628906 187.5 294.628906 Z M 320.089844 301.179688 L 282.195312 263.28125 C 276.96875 258.058594 268.542969 258.058594 263.320312 263.28125 C 258.09375 268.507812 258.09375 276.929688 263.320312 282.15625 L 301.21875 320.054688 C 303.765625 322.601562 307.242188 323.929688 310.589844 323.929688 C 314.066406 323.929688 317.417969 322.578125 320.089844 320.054688 C 325.316406 314.855469 325.316406 306.40625 320.089844 301.179688 Z M 361.589844 174.089844 L 308.015625 174.089844 C 300.640625 174.089844 294.617188 180.113281 294.617188 187.488281 C 294.617188 194.863281 300.640625 200.886719 308.015625 200.886719 L 361.589844 200.886719 C 368.964844 200.886719 374.988281 194.863281 374.988281 187.488281 C 374.988281 180.113281 368.964844 174.089844 361.589844 174.089844 Z M 320.089844 54.894531 C 314.867188 49.671875 306.441406 49.671875 301.21875 54.894531 L 263.320312 92.792969 C 258.09375 98.019531 258.09375 106.441406 263.320312 111.667969 C 265.871094 114.34375 269.34375 115.691406 272.695312 115.691406 C 276.167969 115.691406 279.667969 114.34375 282.195312 111.667969 L 320.089844 73.769531 C 325.316406 68.570312 325.316406 60.121094 320.089844 54.894531 Z M 187.5 0 C 180.125 0 174.101562 6.023438 174.101562 13.398438 L 174.101562 66.96875 C 174.101562 74.34375 180.125 80.371094 187.5 80.371094 C 194.875 80.371094 200.898438 74.34375 200.898438 66.96875 L 200.898438 13.398438 C 200.898438 6.023438 194.875 0 187.5 0 Z M 281.242188 187.488281 C 281.242188 239.308594 239.320312 281.230469 187.5 281.230469 C 135.679688 281.230469 93.757812 239.308594 93.757812 187.488281 C 93.757812 135.664062 135.679688 93.742188 187.5 93.742188 C 239.320312 93.742188 281.242188 135.664062 281.242188 187.488281 Z M 281.242188 187.488281 " fill-opacity="1" fill-rule="nonzero"/></svg>